<svg width="3500" height="800" viewBox="0 0 3500 800" fill="none" xmlns="http://www.w3.org/2000/svg">
<path fill-rule="evenodd" clip-rule="evenodd" d="M575.059 401.887L575.044 401.874C575.049 401.879 575.053 401.884 575.059 401.887Z" fill="#8FBCBB"/>
<path fill-rule="evenodd" clip-rule="evenodd" d="M302.482 481.729C288.555 468.927 267.003 469.967 254.345 484.052L153.86 595.858C141.202 609.943 142.23 631.738 156.157 644.54C170.084 657.341 191.636 656.301 204.294 642.217L304.779 530.411C317.438 516.326 316.409 494.53 302.482 481.729Z" fill="#8FBCBB"/>
<path d="M480.716 262.032C496.433 266.659 505.586 283.079 501.498 298.996C500.831 305.658 498.242 312.193 493.654 317.699L406.903 421.819L500.096 451.391C506.775 452.262 513.266 455.139 518.627 460.067C532.554 472.868 533.583 494.664 520.924 508.749L420.439 620.555C407.781 634.639 386.229 635.679 372.302 622.878C358.375 610.076 357.346 588.281 370.005 574.196L434.235 502.73L339.529 472.678C336.438 471.698 333.583 470.313 331.003 468.599C329.341 467.616 327.739 466.476 326.216 465.179C311.824 452.915 309.987 431.174 322.114 416.619L414.242 306.045L359.46 289.917L309.313 353.101C298.879 366.248 279.882 368.351 266.882 357.799C253.883 347.246 251.803 328.035 262.237 314.888L322.918 238.431C326.963 233.336 332.295 229.899 338.064 228.215C344.55 225.042 352.175 224.192 359.638 226.389L480.716 262.032Z" fill="#8FBCBB"/>
<path d="M575.059 401.887L575.029 401.861C574.428 401.54 573.834 401.196 573.248 400.83L532.245 375.221C518.062 366.362 513.666 347.554 522.425 333.211C531.184 318.868 549.782 314.422 563.964 323.28L588.515 338.614L622.791 297.708C633.567 284.847 652.613 283.256 665.33 294.154C678.047 305.053 679.62 324.314 668.844 337.175L617.599 398.333C606.822 411.194 587.776 412.785 575.059 401.887Z" fill="#8FBCBB"/>
<path d="M542.589 246.933C570.013 246.933 592.244 224.45 592.244 196.716C592.244 168.983 570.013 146.5 542.589 146.5C515.166 146.5 492.934 168.983 492.934 196.716C492.934 224.45 515.166 246.933 542.589 246.933Z" fill="#8FBCBB"/>
<path d="M807.52 581.5V308.092H853.6L858.208 378.748H853.6C857.013 354.855 864.181 337.105 875.104 325.5C886.368 313.895 902.24 308.092 922.72 308.092H982.624V358.78H926.304C913.333 358.78 902.581 361.169 894.048 365.948C885.515 370.727 879.029 377.724 874.592 386.94C870.155 396.156 867.936 407.761 867.936 421.756V581.5H807.52ZM739.936 581.5V532.348H952.416V581.5H739.936ZM739.936 357.244V308.092H842.848V357.244H739.936ZM1132.95 587.644C1106.67 587.644 1085.85 578.94 1070.49 561.532C1055.47 543.783 1047.96 518.695 1047.96 486.268V308.092H1108.38V470.396C1108.38 493.265 1112.13 509.991 1119.64 520.572C1127.49 530.812 1139.27 535.932 1154.97 535.932C1171.35 535.932 1184.66 530.129 1194.9 518.524C1205.49 506.577 1210.78 489.852 1210.78 468.348V308.092H1271.7V581.5H1215.38L1214.36 506.236L1222.04 508.796C1217.6 534.055 1207.7 553.511 1192.34 567.164C1176.98 580.817 1157.19 587.644 1132.95 587.644ZM1352.91 581.5V308.092H1408.21L1410.26 381.308L1404.11 377.724C1407.18 360.316 1412.99 346.151 1421.52 335.228C1430.05 323.964 1440.46 315.601 1452.75 310.14C1465.38 304.679 1479.03 301.948 1493.71 301.948C1513.85 301.948 1530.41 306.385 1543.38 315.26C1556.35 324.135 1566.07 336.423 1572.56 352.124C1579.05 367.484 1582.29 385.063 1582.29 404.86V581.5H1521.87V419.196C1521.87 397.351 1517.78 380.967 1509.58 370.044C1501.73 359.121 1489.62 353.66 1473.23 353.66C1462.31 353.66 1452.24 356.22 1443.02 361.34C1434.15 366.46 1426.98 374.14 1421.52 384.38C1416.06 394.279 1413.33 406.567 1413.33 421.244V581.5H1352.91ZM1780.23 587.644C1754.29 587.644 1731.59 581.671 1712.14 569.724C1692.68 557.777 1677.49 541.223 1666.57 520.06C1655.65 498.556 1650.18 473.468 1650.18 444.796C1650.18 416.124 1655.65 391.207 1666.57 370.044C1677.49 348.54 1692.68 331.815 1712.14 319.868C1731.59 307.921 1754.29 301.948 1780.23 301.948C1801.39 301.948 1820.34 306.044 1837.06 314.236C1854.13 322.428 1868.13 334.204 1879.05 349.564C1890.31 364.583 1897.48 382.503 1900.55 403.324L1839.62 406.908C1835.87 390.524 1828.87 378.065 1818.63 369.532C1808.39 360.657 1795.76 356.22 1780.74 356.22C1759.58 356.22 1743.03 364.241 1731.08 380.284C1719.13 395.985 1713.16 417.489 1713.16 444.796C1713.16 472.103 1719.13 493.777 1731.08 509.82C1743.03 525.521 1759.58 533.372 1780.74 533.372C1795.76 533.372 1808.56 528.764 1819.14 519.548C1830.07 510.332 1837.41 496.849 1841.16 479.1L1902.09 482.684C1898.67 503.847 1891.34 522.279 1880.07 537.98C1869.15 553.681 1854.98 565.969 1837.58 574.844C1820.51 583.377 1801.39 587.644 1780.23 587.644ZM2081.6 587.644C2056 587.644 2033.47 581.841 2014.02 570.236C1994.9 558.631 1980.05 542.076 1969.47 520.572C1958.89 499.068 1953.6 473.809 1953.6 444.796C1953.6 415.783 1958.89 390.524 1969.47 369.02C1980.05 347.516 1994.9 330.961 2014.02 319.356C2033.47 307.751 2056 301.948 2081.6 301.948C2107.2 301.948 2129.56 307.751 2148.67 319.356C2168.13 330.961 2183.15 347.516 2193.73 369.02C2204.31 390.183 2209.6 415.441 2209.6 444.796C2209.6 473.809 2204.31 499.068 2193.73 520.572C2183.15 542.076 2168.13 558.631 2148.67 570.236C2129.56 581.841 2107.2 587.644 2081.6 587.644ZM2081.6 533.372C2102.42 533.372 2118.46 525.692 2129.73 510.332C2140.99 494.631 2146.62 472.785 2146.62 444.796C2146.62 416.807 2140.99 395.132 2129.73 379.772C2118.46 364.071 2102.42 356.22 2081.6 356.22C2060.78 356.22 2044.74 364.071 2033.47 379.772C2022.21 395.132 2016.58 416.807 2016.58 444.796C2016.58 472.785 2022.21 494.631 2033.47 510.332C2044.74 525.692 2060.78 533.372 2081.6 533.372ZM2342.52 581.5V308.092H2388.6L2393.21 378.748H2388.6C2392.01 354.855 2399.18 337.105 2410.1 325.5C2421.37 313.895 2437.24 308.092 2457.72 308.092H2517.62V358.78H2461.3C2448.33 358.78 2437.58 361.169 2429.05 365.948C2420.51 370.727 2414.03 377.724 2409.59 386.94C2405.15 396.156 2402.94 407.761 2402.94 421.756V581.5H2342.52ZM2274.94 581.5V532.348H2487.42V581.5H2274.94ZM2274.94 357.244V308.092H2377.85V357.244H2274.94ZM2698.16 587.644C2672.56 587.644 2650.03 581.841 2630.58 570.236C2611.46 558.631 2596.61 542.076 2586.03 520.572C2575.45 499.068 2570.16 473.809 2570.16 444.796C2570.16 416.124 2575.45 391.207 2586.03 370.044C2596.61 348.54 2611.29 331.815 2630.06 319.868C2649.18 307.921 2671.54 301.948 2697.14 301.948C2721.71 301.948 2743.39 307.751 2762.16 319.356C2781.27 330.961 2796.12 347.516 2806.7 369.02C2817.63 390.524 2823.09 416.124 2823.09 445.82V461.692H2632.62C2634.33 484.903 2640.99 502.652 2652.59 514.94C2664.54 527.228 2680.07 533.372 2699.18 533.372C2713.86 533.372 2725.98 529.959 2735.54 523.132C2745.43 515.964 2752.26 506.748 2756.02 495.484L2817.97 500.092C2809.43 527.399 2794.93 548.903 2774.45 564.604C2753.97 579.964 2728.54 587.644 2698.16 587.644ZM2633.14 417.66H2757.55C2755.85 396.839 2749.53 381.479 2738.61 371.58C2727.69 361.34 2713.69 356.22 2696.62 356.22C2679.56 356.22 2665.39 361.511 2654.13 372.092C2643.21 382.332 2636.21 397.521 2633.14 417.66ZM2965.22 581.5V509.308H3039.98V581.5H2965.22Z" fill="#8FBCBB"/>
<path d="M762.032 260V191.904H772.272L773.424 209.312L772.272 209.184C773.125 203.296 774.96 198.944 777.776 196.128C780.592 193.312 784.475 191.904 789.424 191.904H803.888V203.168H789.936C786.693 203.168 783.963 203.808 781.744 205.088C779.525 206.283 777.819 208.117 776.624 210.592C775.515 212.981 774.96 215.968 774.96 219.552V260H762.032ZM744.752 260V249.12H796.208V260H744.752ZM744.752 202.784V191.904H769.328V202.784H744.752ZM850.046 261.536C843.646 261.536 838.057 260.085 833.278 257.184C828.585 254.283 824.915 250.144 822.27 244.768C819.71 239.392 818.43 233.12 818.43 225.952C818.43 218.784 819.71 212.555 822.27 207.264C824.915 201.973 828.542 197.835 833.15 194.848C837.843 191.861 843.347 190.368 849.662 190.368C855.721 190.368 861.054 191.819 865.662 194.72C870.27 197.536 873.854 201.632 876.414 207.008C879.059 212.299 880.382 218.699 880.382 226.208V229.792H831.998C832.425 236.277 834.217 241.227 837.374 244.64C840.617 247.968 844.883 249.632 850.174 249.632C854.185 249.632 857.513 248.693 860.158 246.816C862.803 244.853 864.638 242.336 865.662 239.264L879.23 240.16C877.267 246.645 873.726 251.851 868.606 255.776C863.571 259.616 857.385 261.536 850.046 261.536ZM831.998 219.424H866.43C865.918 213.621 864.126 209.312 861.054 206.496C858.067 203.68 854.27 202.272 849.662 202.272C844.883 202.272 840.958 203.723 837.886 206.624C834.814 209.525 832.851 213.792 831.998 219.424ZM926.924 261.536C920.865 261.536 915.66 260.512 911.308 258.464C906.956 256.416 903.585 253.685 901.196 250.272C898.807 246.773 897.441 242.891 897.1 238.624L910.284 237.856C910.967 241.525 912.673 244.469 915.404 246.688C918.135 248.821 922.017 249.888 927.052 249.888C931.745 249.888 935.329 249.248 937.804 247.968C940.279 246.688 941.516 244.683 941.516 241.952C941.516 240.245 941.089 238.837 940.236 237.728C939.383 236.533 937.761 235.552 935.372 234.784C933.068 233.931 929.655 233.077 925.132 232.224C918.391 230.944 913.1 229.451 909.26 227.744C905.505 225.952 902.817 223.733 901.196 221.088C899.575 218.357 898.764 215.072 898.764 211.232C898.764 207.307 899.745 203.765 901.708 200.608C903.756 197.451 906.743 194.976 910.668 193.184C914.593 191.307 919.457 190.368 925.26 190.368C931.319 190.368 936.311 191.435 940.236 193.568C944.161 195.616 947.233 198.304 949.452 201.632C951.671 204.96 953.079 208.587 953.676 212.512L940.492 213.28C939.98 211.061 939.084 209.141 937.804 207.52C936.524 205.813 934.817 204.491 932.684 203.552C930.551 202.528 928.076 202.016 925.26 202.016C920.737 202.016 917.409 202.912 915.276 204.704C913.143 206.496 912.076 208.672 912.076 211.232C912.076 213.28 912.588 214.944 913.612 216.224C914.636 217.419 916.343 218.443 918.732 219.296C921.121 220.064 924.364 220.832 928.46 221.6C935.372 222.709 940.705 224.16 944.46 225.952C948.215 227.659 950.86 229.792 952.396 232.352C953.932 234.912 954.7 238.069 954.7 241.824C954.7 245.92 953.505 249.461 951.116 252.448C948.812 255.349 945.569 257.611 941.388 259.232C937.292 260.768 932.471 261.536 926.924 261.536ZM973.466 279.2V191.904H985.754L986.01 207.392L984.474 206.624C986.181 201.333 988.954 197.323 992.794 194.592C996.719 191.776 1001.33 190.368 1006.62 190.368C1013.19 190.368 1018.56 192.032 1022.75 195.36C1026.93 198.603 1030.04 202.912 1032.09 208.288C1034.14 213.664 1035.16 219.552 1035.16 225.952C1035.16 232.352 1034.14 238.24 1032.09 243.616C1030.04 248.992 1026.93 253.344 1022.75 256.672C1018.56 259.915 1013.19 261.536 1006.62 261.536C1003.12 261.536 999.877 260.981 996.89 259.872C993.903 258.677 991.343 257.013 989.21 254.88C987.162 252.661 985.669 250.016 984.73 246.944L986.394 245.152V279.2H973.466ZM1004.19 249.632C1009.65 249.632 1013.91 247.584 1016.99 243.488C1020.06 239.392 1021.59 233.547 1021.59 225.952C1021.59 218.357 1020.06 212.512 1016.99 208.416C1013.91 204.32 1009.65 202.272 1004.19 202.272C1000.6 202.272 997.487 203.168 994.842 204.96C992.197 206.667 990.106 209.269 988.57 212.768C987.119 216.267 986.394 220.661 986.394 225.952C986.394 231.243 987.119 235.637 988.57 239.136C990.021 242.635 992.069 245.28 994.714 247.072C997.445 248.779 1000.6 249.632 1004.19 249.632ZM1080.3 261.536C1073.9 261.536 1068.31 260.085 1063.53 257.184C1058.83 254.283 1055.17 250.144 1052.52 244.768C1049.96 239.392 1048.68 233.12 1048.68 225.952C1048.68 218.784 1049.96 212.555 1052.52 207.264C1055.17 201.973 1058.79 197.835 1063.4 194.848C1068.09 191.861 1073.6 190.368 1079.91 190.368C1085.97 190.368 1091.3 191.819 1095.91 194.72C1100.52 197.536 1104.1 201.632 1106.66 207.008C1109.31 212.299 1110.63 218.699 1110.63 226.208V229.792H1062.25C1062.67 236.277 1064.47 241.227 1067.62 244.64C1070.87 247.968 1075.13 249.632 1080.42 249.632C1084.43 249.632 1087.76 248.693 1090.41 246.816C1093.05 244.853 1094.89 242.336 1095.91 239.264L1109.48 240.16C1107.52 246.645 1103.98 251.851 1098.86 255.776C1093.82 259.616 1087.63 261.536 1080.3 261.536ZM1062.25 219.424H1096.68C1096.17 213.621 1094.38 209.312 1091.3 206.496C1088.32 203.68 1084.52 202.272 1079.91 202.272C1075.13 202.272 1071.21 203.723 1068.14 206.624C1065.06 209.525 1063.1 213.792 1062.25 219.424ZM1157.69 261.536C1151.37 261.536 1145.78 260.085 1140.92 257.184C1136.14 254.197 1132.43 250.059 1129.78 244.768C1127.22 239.392 1125.94 233.12 1125.94 225.952C1125.94 218.784 1127.22 212.555 1129.78 207.264C1132.43 201.973 1136.14 197.835 1140.92 194.848C1145.78 191.861 1151.37 190.368 1157.69 190.368C1162.89 190.368 1167.54 191.349 1171.64 193.312C1175.73 195.189 1179.1 197.963 1181.75 201.632C1184.4 205.301 1186.14 209.696 1187 214.816L1173.81 215.712C1172.79 211.36 1170.87 208.032 1168.05 205.728C1165.24 203.424 1161.82 202.272 1157.81 202.272C1152.1 202.272 1147.57 204.405 1144.25 208.672C1141 212.853 1139.38 218.613 1139.38 225.952C1139.38 233.291 1141 239.093 1144.25 243.36C1147.57 247.541 1152.1 249.632 1157.81 249.632C1161.91 249.632 1165.41 248.437 1168.31 246.048C1171.3 243.573 1173.26 239.947 1174.2 235.168L1187.38 235.936C1186.53 241.141 1184.74 245.664 1182.01 249.504C1179.28 253.259 1175.82 256.203 1171.64 258.336C1167.54 260.469 1162.89 261.536 1157.69 261.536ZM1242.63 260C1235.72 260 1230.55 258.421 1227.14 255.264C1223.81 252.021 1222.15 247.072 1222.15 240.416V175.904H1235.08V239.776C1235.08 242.933 1235.8 245.28 1237.25 246.816C1238.79 248.352 1241.05 249.12 1244.04 249.12H1261.57V260H1242.63ZM1200.64 202.784V191.904H1261.57V202.784H1200.64ZM1396.13 260C1389.22 260 1384.05 258.421 1380.64 255.264C1377.31 252.021 1375.65 247.072 1375.65 240.416V175.904H1388.58V239.776C1388.58 242.933 1389.3 245.28 1390.75 246.816C1392.29 248.352 1394.55 249.12 1397.54 249.12H1415.07V260H1396.13ZM1354.14 202.784V191.904H1415.07V202.784H1354.14ZM1436.65 260V169.12H1449.58V206.752L1448.3 206.24C1449.16 202.571 1450.61 199.584 1452.65 197.28C1454.7 194.891 1457.18 193.141 1460.08 192.032C1462.98 190.923 1466.18 190.368 1469.68 190.368C1474.46 190.368 1478.47 191.477 1481.71 193.696C1485.04 195.829 1487.51 198.859 1489.13 202.784C1490.84 206.624 1491.69 211.061 1491.69 216.096V260H1478.77V219.424C1478.77 213.28 1477.66 208.8 1475.44 205.984C1473.3 203.083 1470.1 201.632 1465.84 201.632C1460.97 201.632 1457.05 203.168 1454.06 206.24C1451.08 209.312 1449.58 213.835 1449.58 219.808V260H1436.65ZM1540.8 261.536C1534.4 261.536 1528.81 260.085 1524.03 257.184C1519.33 254.283 1515.67 250.144 1513.02 244.768C1510.46 239.392 1509.18 233.12 1509.18 225.952C1509.18 218.784 1510.46 212.555 1513.02 207.264C1515.67 201.973 1519.29 197.835 1523.9 194.848C1528.59 191.861 1534.1 190.368 1540.41 190.368C1546.47 190.368 1551.8 191.819 1556.41 194.72C1561.02 197.536 1564.6 201.632 1567.16 207.008C1569.81 212.299 1571.13 218.699 1571.13 226.208V229.792H1522.75C1523.17 236.277 1524.97 241.227 1528.12 244.64C1531.37 247.968 1535.63 249.632 1540.92 249.632C1544.93 249.632 1548.26 248.693 1550.91 246.816C1553.55 244.853 1555.39 242.336 1556.41 239.264L1569.98 240.16C1568.02 246.645 1564.48 251.851 1559.36 255.776C1554.32 259.616 1548.13 261.536 1540.8 261.536ZM1522.75 219.424H1557.18C1556.67 213.621 1554.88 209.312 1551.8 206.496C1548.82 203.68 1545.02 202.272 1540.41 202.272C1535.63 202.272 1531.71 203.723 1528.64 206.624C1525.56 209.525 1523.6 213.792 1522.75 219.424ZM1688.02 261.536C1682.22 261.536 1677.19 260.128 1672.92 257.312C1668.65 254.411 1665.37 250.315 1663.06 245.024C1660.76 239.648 1659.61 233.291 1659.61 225.952C1659.61 218.613 1660.76 212.299 1663.06 207.008C1665.37 201.632 1668.65 197.536 1672.92 194.72C1677.19 191.819 1682.22 190.368 1688.02 190.368C1692.8 190.368 1696.98 191.477 1700.57 193.696C1704.15 195.915 1706.75 198.517 1708.38 201.504V169.12H1721.3V260H1709.27L1708.89 249.504C1707.01 253.173 1704.28 256.117 1700.7 258.336C1697.11 260.469 1692.89 261.536 1688.02 261.536ZM1690.2 249.632C1693.95 249.632 1697.15 248.693 1699.8 246.816C1702.53 244.853 1704.62 242.123 1706.07 238.624C1707.61 235.04 1708.38 230.816 1708.38 225.952C1708.38 220.917 1707.61 216.651 1706.07 213.152C1704.62 209.653 1702.53 206.965 1699.8 205.088C1697.07 203.211 1693.78 202.272 1689.94 202.272C1684.74 202.272 1680.64 204.363 1677.66 208.544C1674.67 212.725 1673.18 218.528 1673.18 225.952C1673.18 233.291 1674.67 239.093 1677.66 243.36C1680.64 247.541 1684.82 249.632 1690.2 249.632ZM1768.1 260V191.904H1781.16V260H1768.1ZM1741.48 260V249.12H1803.94V260H1741.48ZM1742.76 202.784V191.904H1780.01V202.784H1742.76ZM1767.33 182.048V168.608H1780.65V182.048H1767.33ZM1847.92 261.536C1841.87 261.536 1836.66 260.512 1832.31 258.464C1827.96 256.416 1824.59 253.685 1822.2 250.272C1819.81 246.773 1818.44 242.891 1818.1 238.624L1831.28 237.856C1831.97 241.525 1833.67 244.469 1836.4 246.688C1839.13 248.821 1843.02 249.888 1848.05 249.888C1852.75 249.888 1856.33 249.248 1858.8 247.968C1861.28 246.688 1862.52 244.683 1862.52 241.952C1862.52 240.245 1862.09 238.837 1861.24 237.728C1860.38 236.533 1858.76 235.552 1856.37 234.784C1854.07 233.931 1850.65 233.077 1846.13 232.224C1839.39 230.944 1834.1 229.451 1830.26 227.744C1826.51 225.952 1823.82 223.733 1822.2 221.088C1820.57 218.357 1819.76 215.072 1819.76 211.232C1819.76 207.307 1820.75 203.765 1822.71 200.608C1824.76 197.451 1827.74 194.976 1831.67 193.184C1835.59 191.307 1840.46 190.368 1846.26 190.368C1852.32 190.368 1857.31 191.435 1861.24 193.568C1865.16 195.616 1868.23 198.304 1870.45 201.632C1872.67 204.96 1874.08 208.587 1874.68 212.512L1861.49 213.28C1860.98 211.061 1860.08 209.141 1858.8 207.52C1857.52 205.813 1855.82 204.491 1853.68 203.552C1851.55 202.528 1849.08 202.016 1846.26 202.016C1841.74 202.016 1838.41 202.912 1836.28 204.704C1834.14 206.496 1833.08 208.672 1833.08 211.232C1833.08 213.28 1833.59 214.944 1834.61 216.224C1835.64 217.419 1837.34 218.443 1839.73 219.296C1842.12 220.064 1845.36 220.832 1849.46 221.6C1856.37 222.709 1861.71 224.16 1865.46 225.952C1869.21 227.659 1871.86 229.792 1873.4 232.352C1874.93 234.912 1875.7 238.069 1875.7 241.824C1875.7 245.92 1874.51 249.461 1872.12 252.448C1869.81 255.349 1866.57 257.611 1862.39 259.232C1858.29 260.768 1853.47 261.536 1847.92 261.536ZM1933.38 260C1926.47 260 1921.3 258.421 1917.89 255.264C1914.56 252.021 1912.9 247.072 1912.9 240.416V175.904H1925.83V239.776C1925.83 242.933 1926.55 245.28 1928 246.816C1929.54 248.352 1931.8 249.12 1934.79 249.12H1952.32V260H1933.38ZM1891.39 202.784V191.904H1952.32V202.784H1891.39ZM1991.18 261.536C1986.92 261.536 1983.08 260.768 1979.66 259.232C1976.25 257.696 1973.52 255.52 1971.47 252.704C1969.51 249.888 1968.53 246.603 1968.53 242.848C1968.53 237.045 1970.28 232.523 1973.78 229.28C1977.36 226.037 1982.74 223.733 1989.9 222.368L2011.92 217.76C2011.92 212.469 2010.77 208.501 2008.46 205.856C2006.16 203.211 2002.7 201.888 1998.1 201.888C1993.83 201.888 1990.5 202.869 1988.11 204.832C1985.72 206.795 1984.1 209.525 1983.25 213.024L1969.68 212.128C1970.96 205.643 1974.07 200.395 1979.02 196.384C1983.97 192.373 1990.33 190.368 1998.1 190.368C2006.8 190.368 2013.41 192.843 2017.94 197.792C2022.54 202.741 2024.85 209.568 2024.85 218.272V245.152C2024.85 246.688 2025.19 247.797 2025.87 248.48C2026.55 249.077 2027.54 249.376 2028.82 249.376H2032.66V260C2032.14 260.085 2031.29 260.171 2030.1 260.256C2028.99 260.341 2027.88 260.384 2026.77 260.384C2023.7 260.384 2021.09 259.872 2018.96 258.848C2016.83 257.824 2015.21 256.245 2014.1 254.112C2013.07 251.893 2012.47 249.12 2012.3 245.792H2014.35C2013.84 248.779 2012.52 251.467 2010.38 253.856C2008.25 256.245 2005.52 258.123 2002.19 259.488C1998.86 260.853 1995.19 261.536 1991.18 261.536ZM1993.1 250.912C1997.2 250.912 2000.66 250.187 2003.47 248.736C2006.29 247.285 2008.38 245.237 2009.74 242.592C2011.19 239.947 2011.92 236.832 2011.92 233.248V228L1992.98 231.84C1988.88 232.608 1986.02 233.803 1984.4 235.424C1982.78 237.045 1981.97 239.179 1981.97 241.824C1981.97 244.64 1982.95 246.859 1984.91 248.48C1986.87 250.101 1989.61 250.912 1993.1 250.912ZM2048.99 260V191.904H2060.89L2061.28 209.696L2059.87 208.672C2060.72 204.491 2062.22 201.077 2064.35 198.432C2066.57 195.701 2069.26 193.696 2072.41 192.416C2075.57 191.051 2078.94 190.368 2082.53 190.368C2087.65 190.368 2091.87 191.52 2095.2 193.824C2098.53 196.043 2101.04 199.115 2102.75 203.04C2104.46 206.88 2105.31 211.232 2105.31 216.096V260H2092.38V219.424C2092.38 213.536 2091.23 209.099 2088.93 206.112C2086.71 203.125 2083.34 201.632 2078.81 201.632C2075.66 201.632 2072.8 202.315 2070.24 203.68C2067.76 205.045 2065.76 207.093 2064.22 209.824C2062.69 212.469 2061.92 215.755 2061.92 219.68V260H2048.99ZM2155.44 261.536C2149.12 261.536 2143.53 260.085 2138.67 257.184C2133.89 254.197 2130.18 250.059 2127.53 244.768C2124.97 239.392 2123.69 233.12 2123.69 225.952C2123.69 218.784 2124.97 212.555 2127.53 207.264C2130.18 201.973 2133.89 197.835 2138.67 194.848C2143.53 191.861 2149.12 190.368 2155.44 190.368C2160.64 190.368 2165.29 191.349 2169.39 193.312C2173.48 195.189 2176.85 197.963 2179.5 201.632C2182.15 205.301 2183.89 209.696 2184.75 214.816L2171.56 215.712C2170.54 211.36 2168.62 208.032 2165.8 205.728C2162.99 203.424 2159.57 202.272 2155.56 202.272C2149.85 202.272 2145.32 204.405 2142 208.672C2138.75 212.853 2137.13 218.613 2137.13 225.952C2137.13 233.291 2138.75 239.093 2142 243.36C2145.32 247.541 2149.85 249.632 2155.56 249.632C2159.66 249.632 2163.16 248.437 2166.06 246.048C2169.05 243.573 2171.01 239.947 2171.95 235.168L2185.13 235.936C2184.28 241.141 2182.49 245.664 2179.76 249.504C2177.03 253.259 2173.57 256.203 2169.39 258.336C2165.29 260.469 2160.64 261.536 2155.44 261.536ZM2231.55 261.536C2225.15 261.536 2219.56 260.085 2214.78 257.184C2210.08 254.283 2206.42 250.144 2203.77 244.768C2201.21 239.392 2199.93 233.12 2199.93 225.952C2199.93 218.784 2201.21 212.555 2203.77 207.264C2206.42 201.973 2210.04 197.835 2214.65 194.848C2219.34 191.861 2224.85 190.368 2231.16 190.368C2237.22 190.368 2242.55 191.819 2247.16 194.72C2251.77 197.536 2255.35 201.632 2257.91 207.008C2260.56 212.299 2261.88 218.699 2261.88 226.208V229.792H2213.5C2213.92 236.277 2215.72 241.227 2218.87 244.64C2222.12 247.968 2226.38 249.632 2231.67 249.632C2235.68 249.632 2239.01 248.693 2241.66 246.816C2244.3 244.853 2246.14 242.336 2247.16 239.264L2260.73 240.16C2258.77 246.645 2255.23 251.851 2250.11 255.776C2245.07 259.616 2238.88 261.536 2231.55 261.536ZM2213.5 219.424H2247.93C2247.42 213.621 2245.63 209.312 2242.55 206.496C2239.57 203.68 2235.77 202.272 2231.16 202.272C2226.38 202.272 2222.46 203.723 2219.39 206.624C2216.31 209.525 2214.35 213.792 2213.5 219.424Z" fill="#6A7791"/>
</svg>
